<svg width="1080" height="1920" viewBox="0 0 1080 1920" fill="none" xmlns="http://www.w3.org/2000/svg">
<g clip-path="url(#clip0_202_3)">
<path d="M725.21 270.564V478.425C725.21 479.106 725.21 479.447 725.078 479.74C725.035 479.837 724.982 479.928 724.919 480.013C724.729 480.272 724.432 480.44 723.84 480.775L540.964 584.248C540.389 584.573 540.101 584.736 539.789 584.769C539.686 584.779 539.583 584.779 539.481 584.769C539.169 584.736 538.881 584.573 538.305 584.248L355.429 480.775C354.837 480.44 354.54 480.272 354.35 480.013C354.287 479.928 354.234 479.837 354.191 479.74C354.059 479.447 354.059 479.106 354.059 478.425V270.564M810.86 229.286L540.759 105.515C540.268 105.29 540.023 105.178 539.763 105.156C539.678 105.148 539.591 105.148 539.506 105.156C539.246 105.178 539.001 105.29 538.51 105.515L268.409 229.286L538.463 359.435C538.973 359.681 539.229 359.804 539.5 359.829C539.59 359.837 539.68 359.837 539.769 359.829C540.041 359.804 540.296 359.681 540.807 359.435L810.86 229.286ZM810.86 229.286V546.146C810.86 546.735 810.86 547.03 810.758 547.293C810.724 547.38 810.682 547.463 810.633 547.542C810.484 547.781 810.248 547.957 809.776 548.31L743.054 598.125" stroke="#88CDFF" stroke-width="25" stroke-linecap="round" stroke-linejoin="round"/>
<path d="M241.203 1191.64L80.6779 833.14C79.452 830.402 78.839 829.033 79.1066 827.762C79.193 827.351 79.3435 826.956 79.5526 826.592C80.2 825.465 81.569 824.852 84.3068 823.626L395.532 684.27C396.216 683.964 396.558 683.811 396.876 683.878C396.979 683.899 397.078 683.937 397.169 683.989C397.45 684.151 397.604 684.493 397.91 685.178L560.642 1048.61M209.871 876.97L346.773 815.67M240.521 945.421L331.789 904.555M268.208 1234.33L579.433 1094.98C580.117 1094.67 580.459 1094.52 580.621 1094.24C580.673 1094.15 580.711 1094.05 580.733 1093.94C580.8 1093.63 580.646 1093.28 580.34 1092.6L551.161 1027.43C550.854 1026.75 550.701 1026.41 550.419 1026.25C550.328 1026.19 550.23 1026.16 550.127 1026.13C549.809 1026.07 549.467 1026.22 548.782 1026.53L237.558 1165.88C234.82 1167.11 233.451 1167.72 232.803 1168.85C232.594 1169.21 232.444 1169.61 232.357 1170.02C232.09 1171.29 232.703 1172.66 233.929 1175.4L258.694 1230.7C259.92 1233.44 260.533 1234.81 261.66 1235.46C262.024 1235.67 262.418 1235.82 262.829 1235.91C264.101 1236.17 265.47 1235.56 268.208 1234.33Z" stroke="#88CDFF" stroke-width="25" stroke-linecap="round" stroke-linejoin="round"/>
<path d="M839.985 1042.45L791.493 1101.94L781.741 1025.81M839.985 1042.45L897.523 841.022M839.985 1042.45L816.964 1012.75L781.741 1025.81M781.741 1025.81L839.28 824.384M897.523 841.022L839.28 824.384M897.523 841.022L909.525 799.008C910.143 796.845 910.452 795.763 910.118 794.847C910.01 794.552 909.856 794.275 909.662 794.027C909.061 793.259 907.979 792.95 905.816 792.332L857.957 778.661C855.794 778.043 854.712 777.734 853.797 778.069C853.501 778.177 853.224 778.33 852.976 778.524C852.209 779.125 851.9 780.207 851.282 782.37L839.28 824.384" stroke="#88CDFF" stroke-width="20" stroke-linecap="round" stroke-linejoin="round"/>
</g>
<defs>
<clipPath id="clip0_202_3">
<rect width="1080" height="1920" fill="white"/>
</clipPath>
</defs>
</svg>
